<svg width="26" height="26" viewBox="0 0 26 26" fill="none" xmlns="http://www.w3.org/2000/svg">
<path d="M24.96 2.34H19.5V0.26C19.5 0.117 19.383 0 19.24 0H17.42C17.277 0 17.16 0.117 17.16 0.26V2.34H8.84V0.26C8.84 0.117 8.723 0 8.58 0H6.76C6.617 0 6.5 0.117 6.5 0.26V2.34H1.04C0.46475 2.34 0 2.80475 0 3.38V24.96C0 25.5352 0.46475 26 1.04 26H24.96C25.5352 26 26 25.5352 26 24.96V3.38C26 2.80475 25.5352 2.34 24.96 2.34ZM23.66 23.66H2.34V11.31H23.66V23.66ZM2.34 9.1V4.68H6.5V6.24C6.5 6.383 6.617 6.5 6.76 6.5H8.58C8.723 6.5 8.84 6.383 8.84 6.24V4.68H17.16V6.24C17.16 6.383 17.277 6.5 17.42 6.5H19.24C19.383 6.5 19.5 6.383 19.5 6.24V4.68H23.66V9.1H2.34Z" fill="#5A7355"/>
</svg>
