<svg width="51" height="51" viewBox="0 0 51 51" fill="none" xmlns="http://www.w3.org/2000/svg">
<path d="M34.5331 8.75264C36.6537 8.75264 38.3571 7.02782 38.3571 4.89194C38.3571 2.75606 36.6547 1.02002 34.5331 1.02002C32.4217 1.02002 30.7163 2.75606 30.7163 4.89194C30.7163 7.02782 32.4217 8.75264 34.5331 8.75264ZM18.3131 24.4321L32.0596 15.4438C32.9249 14.8864 33.5357 14.0106 33.7599 13.006C33.984 12.0014 33.8034 10.949 33.2571 10.0766C32.9914 9.64516 32.6424 9.27098 32.2305 8.97592C31.8186 8.68086 31.352 8.47084 30.8581 8.35812C30.3641 8.24541 29.8526 8.23225 29.3535 8.31943C28.8543 8.4066 28.3776 8.59236 27.9511 8.86586L17.8163 15.4887C17.259 15.8459 16.8042 16.3419 16.4965 16.9279L5.94558 37.9654C5.3244 39.2109 5.81094 40.7184 7.02984 41.3467C7.32096 41.4955 7.63865 41.5851 7.96458 41.6103C8.29051 41.6356 8.61822 41.5961 8.9288 41.4941C9.23937 41.392 9.52666 41.2295 9.77408 41.0158C10.0215 40.8022 10.2242 40.5416 10.3703 40.2492L18.3131 24.4321ZM45.0881 22.9592C45.9649 22.4009 46.5866 21.5198 46.8189 20.5067C47.0512 19.4935 46.8754 18.4296 46.3294 17.545L44.9963 18.3672C45.3264 18.8963 45.4335 19.5346 45.2942 20.1425C45.1548 20.7504 44.7803 21.2783 44.2527 21.6108L2.04 48.6428L2.87538 49.98L45.0881 22.9592Z" fill="#858585"/>
</svg>
