<svg width="26" height="26" viewBox="0 0 26 26" fill="none" xmlns="http://www.w3.org/2000/svg">
<path d="M6.81205 4.65075L2.48414 8.98408L2.39314 9.087C2.23159 9.29556 2.15169 9.55591 2.16845 9.81919C2.1852 10.0825 2.29745 10.3306 2.48414 10.517L2.58705 10.6069C2.79562 10.7685 3.05597 10.8484 3.31925 10.8316C3.58253 10.8148 3.83065 10.7026 4.01705 10.5159L6.50005 8.0275V20.5833L6.50764 20.7101C6.53843 20.9738 6.66501 21.217 6.86332 21.3936C7.06163 21.5701 7.31788 21.6677 7.58339 21.6677L7.71014 21.6602C7.97384 21.6291 8.21696 21.5023 8.3933 21.3037C8.56965 21.1052 8.66695 20.8489 8.66672 20.5833V8.03508L11.1508 10.5159L11.2537 10.6069C11.4715 10.7773 11.7462 10.858 12.0215 10.8325C12.2969 10.8069 12.552 10.677 12.7347 10.4694C12.9174 10.2618 13.0137 9.99223 13.0041 9.71587C12.9944 9.43951 12.8794 9.17731 12.6826 8.983L8.3428 4.64966L8.24097 4.55975C8.0324 4.3982 7.77206 4.3183 7.50878 4.33506C7.24549 4.35181 6.99737 4.46406 6.81097 4.65075H6.81205ZM18.4167 4.33658L18.29 4.34416C18.0264 4.37521 17.7835 4.50189 17.6072 4.70018C17.4308 4.89847 17.3334 5.15457 17.3334 5.41991V17.9649L14.8493 15.4841L14.7464 15.3931C14.5285 15.2246 14.2547 15.1455 13.9806 15.1717C13.7065 15.1979 13.4526 15.3275 13.2707 15.5342C13.0887 15.7409 12.9922 16.0091 13.0009 16.2843C13.0096 16.5595 13.1228 16.8211 13.3175 17.0159L17.6551 21.3492L17.757 21.4402C17.9655 21.6018 18.2259 21.6817 18.4892 21.6649C18.7524 21.6482 19.0006 21.5359 19.187 21.3492L23.516 17.0159L23.607 16.913C23.7685 16.7044 23.8484 16.4441 23.8317 16.1808C23.8149 15.9175 23.7027 15.6694 23.516 15.483L23.4131 15.3931C23.2045 15.2315 22.9441 15.1516 22.6809 15.1684C22.4176 15.1851 22.1695 15.2974 21.9831 15.4841L19.5001 17.9692V5.41991L19.4925 5.29425C19.4617 5.03053 19.3351 4.7873 19.1368 4.61076C18.9385 4.43422 18.6822 4.33665 18.4167 4.33658Z" fill="#5A7355"/>
</svg>
