<svg width="52" height="51" viewBox="0 0 52 51" fill="none" xmlns="http://www.w3.org/2000/svg">
<path d="M14.3125 10.0938C14.3125 10.5821 14.4087 11.0657 14.5956 11.5169C14.7825 11.968 15.0564 12.378 15.4017 12.7233C15.747 13.0686 16.157 13.3425 16.6081 13.5294C17.0593 13.7163 17.5429 13.8125 18.0313 13.8125C18.5196 13.8125 19.0032 13.7163 19.4544 13.5294C19.9055 13.3425 20.3155 13.0686 20.6608 12.7233C21.0061 12.378 21.28 11.968 21.4669 11.5169C21.6538 11.0657 21.75 10.5821 21.75 10.0938C21.75 9.10748 21.3582 8.1616 20.6608 7.4642C19.9634 6.7668 19.0175 6.375 18.0313 6.375C17.045 6.375 16.0991 6.7668 15.4017 7.4642C14.7043 8.1616 14.3125 9.10748 14.3125 10.0938Z" fill="#858585"/>
<path d="M19.625 17V20.1875H16.4375V17H19.625Z" fill="#858585"/>
<path fill-rule="evenodd" clip-rule="evenodd" d="M31.7896 17.0542C31.633 17.0186 31.473 17.0008 31.3125 17.0011H21.75V29.7511H14.3125V17H13.25C11.6516 17.0001 10.1116 17.6007 8.93511 18.6827C7.75862 19.7647 7.0315 21.2491 6.89783 22.8419C6.76416 24.4347 7.2337 26.0195 8.21341 27.2825C9.19312 28.5454 10.6115 29.3942 12.1875 29.6608V42.5C12.1875 43.0636 12.4114 43.6041 12.8099 44.0026C13.2084 44.4011 13.7489 44.625 14.3125 44.625C14.8761 44.625 15.4166 44.4011 15.8151 44.0026C16.2136 43.6041 16.4375 43.0636 16.4375 42.5V32.9375H19.625V42.5C19.625 43.0636 19.8489 43.6041 20.2474 44.0026C20.6459 44.4011 21.1864 44.625 21.75 44.625C22.3136 44.625 22.8541 44.4011 23.2526 44.0026C23.6511 43.6041 23.875 43.0636 23.875 42.5V21.25H31.3125C31.8193 21.25 32.2836 21.0726 32.6491 20.7761L34.772 29.9721C33.6737 30.2256 32.7211 30.9049 32.1237 31.8608C31.5264 32.8166 31.3332 33.9706 31.5866 35.0689L32.7023 44.6261L35.7028 43.9333L34.6084 38.7111L36.6888 38.2755L37.7736 43.4552L45.1261 41.7573L41.9396 32.6793C41.6861 31.581 41.0068 30.6284 40.0509 30.0311C39.0951 29.4337 37.9411 29.2405 36.8428 29.4939L32.7788 11.8958C32.7153 11.621 32.5454 11.3827 32.3063 11.2333C32.0672 11.0838 31.7785 11.0355 31.5038 11.0989C31.229 11.1623 30.9907 11.3322 30.8413 11.5713C30.6918 11.8105 30.6435 12.0991 30.7069 12.3739L31.7885 17.0542H31.7896ZM10.0625 23.3761C10.0625 22.8125 10.2864 22.272 10.6849 21.8735C11.0834 21.475 11.6239 21.2511 12.1875 21.2511V25.5011C11.6239 25.5011 11.0834 25.2772 10.6849 24.8787C10.2864 24.4802 10.0625 23.9397 10.0625 23.3761ZM37.3209 31.5658L35.2491 32.0439C34.7002 32.1709 34.2243 32.5106 33.9258 32.9884C33.6274 33.4662 33.5308 34.0429 33.6574 34.5918L39.8688 33.1574C39.7418 32.6086 39.4021 32.1327 38.9243 31.8342C38.4466 31.5358 37.8699 31.4392 37.3209 31.5658Z" fill="#858585"/>
</svg>
