<svg width="25" height="26" viewBox="0 0 25 26" fill="none" xmlns="http://www.w3.org/2000/svg">
<path d="M23.1686 13.7866H3.30977V4.42893C3.30881 4.07653 3.37739 3.72743 3.51155 3.40185C3.64571 3.07627 3.84278 2.78068 4.09135 2.53218L4.11203 2.51138C4.50159 2.12036 5.00173 1.85977 5.54415 1.76521C6.08656 1.67066 6.64479 1.74675 7.14257 1.98309C6.67246 2.76882 6.47706 3.68995 6.58742 4.60011C6.69778 5.51028 7.10757 6.35725 7.75168 7.00646L8.31802 7.57577L7.27558 8.62373L8.4457 9.79999L9.48814 8.75209L15.2642 2.94579L16.3066 1.89788L15.1365 0.721567L14.094 1.76947L13.5276 1.20016C12.8496 0.520444 11.9558 0.101442 11.0019 0.0161696C10.0481 -0.0691027 9.09478 0.184762 8.30804 0.733524C7.47842 0.206849 6.49528 -0.020521 5.52012 0.0887665C4.54496 0.198054 3.63577 0.637499 2.94191 1.33491L2.92123 1.35571C2.51849 1.75835 2.19919 2.23729 1.98182 2.76481C1.76445 3.29233 1.65332 3.85795 1.65486 4.42893V13.7866H-3.8147e-05V15.4502H1.65486V17.0462C1.65483 17.1803 1.67634 17.3136 1.71858 17.4408L3.25805 22.0832C3.34021 22.3318 3.49818 22.548 3.70953 22.7011C3.92088 22.8543 4.17487 22.9366 4.43541 22.9364H5.10254L4.49923 25.0159H6.22307L6.82643 22.9364H17.5885L18.2091 25.0159H19.9364L19.3158 22.9364H20.3878C20.6484 22.9366 20.9024 22.8543 21.1138 22.7012C21.3252 22.548 21.4832 22.3318 21.5654 22.0832L23.1048 17.4408C23.147 17.3136 23.1686 17.1803 23.1686 17.0462V15.4502H24.8235V13.7866H23.1686ZM8.92195 2.37648C9.37788 1.91916 9.99564 1.66232 10.6397 1.66232C11.2838 1.66232 11.9016 1.91916 12.3575 2.37648L12.9237 2.94579L9.48829 6.39925L8.92195 5.83004C8.46705 5.37171 8.21157 4.7507 8.21157 4.10326C8.21157 3.45581 8.46705 2.83481 8.92195 2.37648ZM21.5137 16.9786L20.0899 21.2728H4.7336L3.30977 16.9786V15.4502H21.5137V16.9786Z" fill="white"/>
</svg>
