<svg width="24" height="24" viewBox="0 0 24 24" fill="none" xmlns="http://www.w3.org/2000/svg">
<path d="M9 8.5H15V10.5H9V8.5ZM15.64 12H8.37C8.13926 12 7.91797 12.0917 7.75482 12.2548C7.59166 12.418 7.5 12.6393 7.5 12.87H7.51V14H16.51V12.87C16.51 12.6393 16.4183 12.418 16.2552 12.2548C16.092 12.0917 15.8707 12 15.64 12Z" fill="white"/>
<path d="M20 2H4C2.9 2 2 2.9 2 4V20C2 21.1 2.9 22 4 22H20C21.1 22 22 21.1 22 20V4C22 2.9 21.1 2 20 2ZM17.25 17C16.84 17 16.5 16.66 16.5 16.25V15.5H7.5V16.25C7.5 16.66 7.16 17 6.75 17C6.34 17 6 16.66 6 16.25V12.87C6 11.87 6.62 11.02 7.5 10.67V9C7.5 7.9 8.4 7 9.5 7H14.5C15.6 7 16.5 7.9 16.5 9V10.67C17.38 11.02 18 11.87 18 12.87V16.25C18 16.66 17.66 17 17.25 17Z" fill="white"/>
</svg>
