<svg width="51" height="51" viewBox="0 0 51 51" fill="none" xmlns="http://www.w3.org/2000/svg">
<path d="M8.5 40.375H42.5V44.625H8.5V40.375ZM42.5 6.375H8.5V27.625C8.5 32.3213 12.3038 36.125 17 36.125H29.75C34.4463 36.125 38.25 32.3213 38.25 27.625V21.25H42.5C43.6272 21.25 44.7082 20.8022 45.5052 20.0052C46.3022 19.2082 46.75 18.1272 46.75 17V10.625C46.75 8.26625 44.8587 6.375 42.5 6.375ZM34 27.625C34 29.9625 32.0875 31.875 29.75 31.875H17C14.6625 31.875 12.75 29.9625 12.75 27.625V10.625H34V27.625ZM42.5 17H38.25V10.625H42.5V17Z" fill="#858585"/>
</svg>
