<svg width="52" height="52" viewBox="0 0 52 52" fill="none" xmlns="http://www.w3.org/2000/svg">
<path d="M14.1 17.5001V15.8001C14.1 13.5457 14.9955 11.3837 16.5896 9.78964C18.1836 8.19558 20.3456 7.30005 22.6 7.30005C24.8543 7.30005 27.0163 8.19558 28.6104 9.78964C30.2045 11.3837 31.1 13.5457 31.1 15.8001V35.4963L39.141 27.4553L37.9612 23.0523L37.9578 23.0319H37.9544C37.8579 22.6699 37.8837 22.2862 38.0277 21.9405C38.1717 21.5947 38.4259 21.3061 38.7508 21.1197C39.0756 20.9332 39.453 20.8593 39.8242 20.9093C40.1954 20.9594 40.5397 21.1306 40.8036 21.3965L47.6036 28.1965C47.8681 28.4601 48.0384 28.8035 48.0883 29.1736C48.1382 29.5437 48.0648 29.9199 47.8794 30.2442C47.6941 30.5684 47.4072 30.8226 47.0629 30.9675C46.7187 31.1123 46.3364 31.1398 45.975 31.0457L45.941 31.0355L41.5448 29.8591L31.1 40.3039V41.3001C31.1 42.2018 30.7418 43.0666 30.1041 43.7042C29.4665 44.3418 28.6017 44.7001 27.7 44.7001H17.5C16.5982 44.7001 15.7334 44.3418 15.0958 43.7042C14.4582 43.0666 14.1 42.2018 14.1 41.3001V39.7225L6.38878 32.0113C4.79674 30.4158 3.90262 28.254 3.90262 26.0001C3.90262 23.7462 4.79674 21.5843 6.38878 19.9889C7.17746 19.1985 8.1145 18.5718 9.14609 18.1447C10.1777 17.7176 11.2835 17.4985 12.4 17.5001H14.1ZM14.1 20.9001H12.4C11.391 20.8996 10.4045 21.1985 9.56537 21.7588C8.72625 22.3192 8.07222 23.1159 7.68602 24.0481C7.29982 24.9802 7.19882 26.006 7.39579 26.9956C7.59277 27.9853 8.07887 28.8942 8.79258 29.6075L14.1 34.9115V20.9001ZM27.7 17.5001V15.8001C27.7 14.4474 27.1627 13.1502 26.2062 12.1938C25.2498 11.2374 23.9526 10.7 22.6 10.7C21.2474 10.7 19.9502 11.2374 18.9937 12.1938C18.0373 13.1502 17.5 14.4474 17.5 15.8001V17.5001H27.7Z" fill="#858585"/>
</svg>
