<svg width="174" height="76" viewBox="0 0 174 76" fill="none" xmlns="http://www.w3.org/2000/svg">
<path d="M8.21032 52.8834V69.7918H6.00387V52.8834H8.21032ZM13.6452 52.8834V54.7183H0.580645V52.8834H13.6452ZM18.1626 57.2267V69.7918H16.0026V57.2267H18.1626ZM15.84 53.8937C15.84 53.5454 15.9445 53.2512 16.1535 53.0112C16.3703 52.7712 16.6877 52.6512 17.1058 52.6512C17.5161 52.6512 17.8297 52.7712 18.0464 53.0112C18.271 53.2512 18.3832 53.5454 18.3832 53.8937C18.3832 54.2267 18.271 54.5131 18.0464 54.7531C17.8297 54.9854 17.5161 55.1015 17.1058 55.1015C16.6877 55.1015 16.3703 54.9854 16.1535 54.7531C15.9445 54.5131 15.84 54.2267 15.84 53.8937ZM30.0774 52.8834V69.7918H27.8361V52.8834H30.0774ZM40.2851 52.8834L33.2593 60.7686L29.311 64.8679L28.9393 62.4757L31.9122 59.2008L37.591 52.8834H40.2851ZM38.1251 69.7918L31.8658 61.5467L33.2013 59.7699L40.7961 69.7918H38.1251ZM49.8542 67.6434V61.175C49.8542 60.6796 49.7535 60.2499 49.5522 59.886C49.3587 59.5144 49.0645 59.2279 48.6697 59.0267C48.2748 58.8254 47.7871 58.7247 47.2064 58.7247C46.6645 58.7247 46.1884 58.8176 45.7781 59.0034C45.3755 59.1892 45.0581 59.4331 44.8258 59.735C44.6013 60.037 44.489 60.3621 44.489 60.7105H42.3406C42.3406 60.2615 42.4568 59.8163 42.689 59.375C42.9213 58.9337 43.2542 58.535 43.6877 58.1789C44.129 57.815 44.6555 57.5286 45.2671 57.3196C45.8864 57.1028 46.5755 56.9944 47.3342 56.9944C48.2477 56.9944 49.0529 57.1492 49.7497 57.4589C50.4542 57.7686 51.0039 58.237 51.3987 58.8641C51.8013 59.4834 52.0026 60.2615 52.0026 61.1983V67.0512C52.0026 67.4692 52.0374 67.9144 52.1071 68.3866C52.1845 68.8589 52.2968 69.2654 52.4439 69.606V69.7918H50.2026C50.0942 69.5441 50.009 69.215 49.9471 68.8047C49.8851 68.3866 49.8542 67.9996 49.8542 67.6434ZM50.2258 62.1737L50.249 63.6834H48.0774C47.4658 63.6834 46.92 63.7337 46.44 63.8344C45.96 63.9273 45.5574 64.0705 45.2322 64.2641C44.9071 64.4576 44.6593 64.7015 44.489 64.9957C44.3187 65.2821 44.2335 65.6189 44.2335 66.006C44.2335 66.4008 44.3226 66.7608 44.5006 67.086C44.6787 67.4112 44.9458 67.6705 45.3019 67.8641C45.6658 68.0499 46.111 68.1428 46.6374 68.1428C47.2955 68.1428 47.8761 68.0034 48.3793 67.7247C48.8826 67.446 49.2813 67.1054 49.5755 66.7028C49.8774 66.3002 50.04 65.9092 50.0632 65.5299L50.9806 66.5634C50.9264 66.8886 50.7793 67.2486 50.5393 67.6434C50.2993 68.0383 49.9781 68.4176 49.5755 68.7815C49.1806 69.1376 48.7084 69.4357 48.1587 69.6757C47.6168 69.9079 47.0051 70.0241 46.3239 70.0241C45.4722 70.0241 44.7251 69.8576 44.0826 69.5247C43.4477 69.1918 42.9522 68.7466 42.5961 68.1892C42.2477 67.6241 42.0735 66.9931 42.0735 66.2963C42.0735 65.6228 42.2052 65.0305 42.4684 64.5196C42.7316 64.0008 43.111 63.5712 43.6064 63.2305C44.1019 62.8821 44.6981 62.6189 45.3948 62.4408C46.0916 62.2628 46.8697 62.1737 47.729 62.1737H50.2258ZM64.7419 68.0266V69.7918H55.6026V68.0266H64.7419ZM64.4051 58.7479L56.0903 69.7918H54.778V68.2125L63.0348 57.2267H64.4051V58.7479ZM63.4529 57.2267V59.0034H54.871V57.2267H63.4529ZM83.6593 67.9686V69.7918H75.2051V67.9686H83.6593ZM75.6464 52.8834V69.7918H73.4051V52.8834H75.6464ZM91.1148 70.0241C90.24 70.0241 89.4464 69.877 88.7342 69.5828C88.0296 69.2808 87.4219 68.8589 86.9109 68.317C86.4077 67.775 86.0206 67.1325 85.7497 66.3892C85.4787 65.646 85.3432 64.8331 85.3432 63.9505V63.4628C85.3432 62.4408 85.4942 61.5312 85.7961 60.7337C86.098 59.9286 86.5084 59.2473 87.0271 58.6899C87.5458 58.1325 88.1342 57.7105 88.7922 57.4241C89.4503 57.1376 90.1316 56.9944 90.8361 56.9944C91.7342 56.9944 92.5084 57.1492 93.1587 57.4589C93.8167 57.7686 94.3548 58.2021 94.7729 58.7596C95.1909 59.3092 95.5006 59.9596 95.7019 60.7105C95.9032 61.4537 96.0038 62.2667 96.0038 63.1492V64.1131H86.6206V62.3596H93.8555V62.197C93.8245 61.6396 93.7084 61.0976 93.5071 60.5712C93.3135 60.0447 93.0038 59.6112 92.578 59.2705C92.1522 58.9299 91.5716 58.7596 90.8361 58.7596C90.3484 58.7596 89.8993 58.8641 89.489 59.0731C89.0787 59.2744 88.7264 59.5763 88.4322 59.9789C88.138 60.3815 87.9096 60.8731 87.7471 61.4537C87.5845 62.0344 87.5032 62.7041 87.5032 63.4628V63.9505C87.5032 64.5466 87.5845 65.1079 87.7471 65.6344C87.9174 66.1531 88.1613 66.6099 88.4787 67.0047C88.8038 67.3996 89.1948 67.7092 89.6516 67.9337C90.1161 68.1583 90.6426 68.2705 91.2309 68.2705C91.9896 68.2705 92.6322 68.1157 93.1587 67.806C93.6851 67.4963 94.1458 67.0821 94.5406 66.5634L95.8413 67.597C95.5703 68.0073 95.2258 68.3983 94.8077 68.7699C94.3896 69.1415 93.8748 69.4434 93.2632 69.6757C92.6593 69.9079 91.9432 70.0241 91.1148 70.0241ZM105.828 66.4589C105.828 66.1492 105.759 65.8628 105.619 65.5996C105.488 65.3286 105.213 65.0847 104.795 64.8679C104.384 64.6434 103.765 64.4499 102.937 64.2873C102.24 64.1402 101.609 63.966 101.044 63.7647C100.486 63.5634 100.01 63.3196 99.6155 63.0331C99.2284 62.7466 98.9303 62.4099 98.7213 62.0228C98.5122 61.6357 98.4077 61.1828 98.4077 60.6641C98.4077 60.1686 98.5161 59.7002 98.7329 59.2589C98.9574 58.8176 99.2709 58.4267 99.6735 58.086C100.084 57.7454 100.575 57.4783 101.148 57.2847C101.721 57.0912 102.36 56.9944 103.064 56.9944C104.071 56.9944 104.93 57.1725 105.643 57.5286C106.355 57.8847 106.901 58.3608 107.28 58.957C107.659 59.5454 107.849 60.1996 107.849 60.9196H105.701C105.701 60.5712 105.596 60.2344 105.387 59.9092C105.186 59.5763 104.888 59.3015 104.493 59.0847C104.106 58.8679 103.63 58.7596 103.064 58.7596C102.468 58.7596 101.984 58.8525 101.613 59.0383C101.249 59.2163 100.982 59.4447 100.812 59.7234C100.649 60.0021 100.568 60.2963 100.568 60.606C100.568 60.8383 100.606 61.0473 100.684 61.2331C100.769 61.4112 100.916 61.5776 101.125 61.7325C101.334 61.8796 101.628 62.0189 102.008 62.1505C102.387 62.2821 102.871 62.4137 103.459 62.5454C104.489 62.7776 105.337 63.0563 106.003 63.3815C106.668 63.7066 107.164 64.1054 107.489 64.5776C107.814 65.0499 107.977 65.6228 107.977 66.2963C107.977 66.846 107.861 67.3492 107.628 67.806C107.404 68.2628 107.075 68.6576 106.641 68.9905C106.215 69.3157 105.704 69.5712 105.108 69.757C104.52 69.935 103.858 70.0241 103.123 70.0241C102.015 70.0241 101.079 69.8266 100.312 69.4318C99.5458 69.037 98.9651 68.526 98.5703 67.8989C98.1755 67.2718 97.978 66.6099 97.978 65.9131H100.138C100.169 66.5015 100.339 66.9699 100.649 67.3183C100.959 67.6589 101.338 67.9028 101.787 68.0499C102.236 68.1892 102.681 68.2589 103.123 68.2589C103.711 68.2589 104.203 68.1815 104.597 68.0266C105 67.8718 105.306 67.6589 105.515 67.3879C105.724 67.117 105.828 66.8073 105.828 66.4589ZM117.732 52.8834H119.903L125.443 66.6679L130.97 52.8834H133.154L126.279 69.7918H124.583L117.732 52.8834ZM117.023 52.8834H118.939L119.253 63.1957V69.7918H117.023V52.8834ZM131.934 52.8834H133.85V69.7918H131.621V63.1957L131.934 52.8834ZM144.871 67.6434V61.175C144.871 60.6796 144.77 60.2499 144.569 59.886C144.375 59.5144 144.081 59.2279 143.686 59.0267C143.292 58.8254 142.804 58.7247 142.223 58.7247C141.681 58.7247 141.205 58.8176 140.795 59.0034C140.392 59.1892 140.075 59.4331 139.843 59.735C139.618 60.037 139.506 60.3621 139.506 60.7105H137.357C137.357 60.2615 137.474 59.8163 137.706 59.375C137.938 58.9337 138.271 58.535 138.704 58.1789C139.146 57.815 139.672 57.5286 140.284 57.3196C140.903 57.1028 141.592 56.9944 142.351 56.9944C143.264 56.9944 144.07 57.1492 144.766 57.4589C145.471 57.7686 146.021 58.237 146.415 58.8641C146.818 59.4834 147.019 60.2615 147.019 61.1983V67.0512C147.019 67.4692 147.054 67.9144 147.124 68.3866C147.201 68.8589 147.314 69.2654 147.461 69.606V69.7918H145.219C145.111 69.5441 145.026 69.215 144.964 68.8047C144.902 68.3866 144.871 67.9996 144.871 67.6434ZM145.243 62.1737L145.266 63.6834H143.094C142.483 63.6834 141.937 63.7337 141.457 63.8344C140.977 63.9273 140.574 64.0705 140.249 64.2641C139.924 64.4576 139.676 64.7015 139.506 64.9957C139.335 65.2821 139.25 65.6189 139.25 66.006C139.25 66.4008 139.339 66.7608 139.517 67.086C139.695 67.4112 139.963 67.6705 140.319 67.8641C140.683 68.0499 141.128 68.1428 141.654 68.1428C142.312 68.1428 142.893 68.0034 143.396 67.7247C143.899 67.446 144.298 67.1054 144.592 66.7028C144.894 66.3002 145.057 65.9092 145.08 65.5299L145.997 66.5634C145.943 66.8886 145.796 67.2486 145.556 67.6434C145.316 68.0383 144.995 68.4176 144.592 68.7815C144.197 69.1376 143.725 69.4357 143.175 69.6757C142.634 69.9079 142.022 70.0241 141.341 70.0241C140.489 70.0241 139.742 69.8576 139.099 69.5247C138.464 69.1918 137.969 68.7466 137.613 68.1892C137.264 67.6241 137.09 66.9931 137.09 66.2963C137.09 65.6228 137.222 65.0305 137.485 64.5196C137.748 64.0008 138.128 63.5712 138.623 63.2305C139.119 62.8821 139.715 62.6189 140.412 62.4408C141.108 62.2628 141.886 62.1737 142.746 62.1737H145.243ZM152.559 51.9544V69.7918H150.399V51.9544H152.559ZM160.235 57.2267L154.754 63.0912L151.688 66.2731L151.514 63.9854L153.708 61.3608L157.61 57.2267H160.235ZM158.272 69.7918L153.79 63.7996L154.904 61.8834L160.804 69.7918H158.272ZM167.435 70.0241C166.56 70.0241 165.766 69.877 165.054 69.5828C164.35 69.2808 163.742 68.8589 163.231 68.317C162.728 67.775 162.341 67.1325 162.07 66.3892C161.799 65.646 161.663 64.8331 161.663 63.9505V63.4628C161.663 62.4408 161.814 61.5312 162.116 60.7337C162.418 59.9286 162.828 59.2473 163.347 58.6899C163.866 58.1325 164.454 57.7105 165.112 57.4241C165.77 57.1376 166.452 56.9944 167.156 56.9944C168.054 56.9944 168.828 57.1492 169.479 57.4589C170.137 57.7686 170.675 58.2021 171.093 58.7596C171.511 59.3092 171.821 59.9596 172.022 60.7105C172.223 61.4537 172.324 62.2667 172.324 63.1492V64.1131H162.941V62.3596H170.175V62.197C170.144 61.6396 170.028 61.0976 169.827 60.5712C169.633 60.0447 169.324 59.6112 168.898 59.2705C168.472 58.9299 167.892 58.7596 167.156 58.7596C166.668 58.7596 166.219 58.8641 165.809 59.0731C165.399 59.2744 165.046 59.5763 164.752 59.9789C164.458 60.3815 164.23 60.8731 164.067 61.4537C163.904 62.0344 163.823 62.7041 163.823 63.4628V63.9505C163.823 64.5466 163.904 65.1079 164.067 65.6344C164.237 66.1531 164.481 66.6099 164.799 67.0047C165.124 67.3996 165.515 67.7092 165.972 67.9337C166.436 68.1583 166.963 68.2705 167.551 68.2705C168.31 68.2705 168.952 68.1157 169.479 67.806C170.005 67.4963 170.466 67.0821 170.861 66.5634L172.161 67.597C171.89 68.0073 171.546 68.3983 171.128 68.7699C170.71 69.1415 170.195 69.4434 169.583 69.6757C168.979 69.9079 168.263 70.0241 167.435 70.0241Z" fill="#EEEEEE"/>
<path d="M26.7451 8.51148L51.6016 13.4828L109.45 0L67.9467 36.701L63.2767 37.3225C65.461 36.2742 67.6455 35.2259 69.0107 34.3033C70.3758 33.3806 70.9219 32.5834 71.468 31.7862L58.8624 37.7161L29.7285 41.3378L18.0643 29.7269L30.1013 30.8986L35.9601 36.7574L41.7655 36.278L50.1808 27.0105L38.9959 25.3594L26.7451 8.51148Z" fill="#EEEEEE"/>
<path d="M99.6885 11.5121C99.3379 11.5165 99.0034 11.6598 98.7584 11.9107C98.5135 12.1616 98.3781 12.4994 98.3821 12.85L98.4653 19.7695L92.1344 19.4992C92.0319 19.2621 91.8621 19.0601 91.6462 18.9183C91.4302 18.7765 91.1774 18.7011 90.919 18.7013C90.7452 18.7015 90.5732 18.7358 90.4127 18.8025C90.2522 18.8691 90.1064 18.9667 89.9837 19.0897C89.8609 19.2127 89.7636 19.3587 89.6973 19.5193C89.6309 19.6799 89.5969 19.852 89.5971 20.0258V28.6015L82.5061 28.2796C82.382 28.1357 82.2283 28.0202 82.0556 27.941C81.8829 27.8618 81.6951 27.8208 81.5051 27.8207C81.3313 27.8207 81.1593 27.855 80.9988 27.9216C80.8383 27.9882 80.6924 28.0857 80.5696 28.2087C80.4468 28.3316 80.3495 28.4776 80.2831 28.6382C80.2167 28.7988 80.1826 28.9708 80.1827 29.1446V29.4986C80.1811 29.5358 80.1811 29.573 80.1827 29.6102V38.6262L73.2296 38.4185C73.1971 38.4173 73.1645 38.4173 73.132 38.4185C72.7983 38.4328 72.4823 38.5728 72.2476 38.8104C72.0128 39.0481 71.8767 39.3657 71.8664 39.6995C71.861 39.8733 71.89 40.0465 71.9516 40.2091C72.0132 40.3717 72.1062 40.5205 72.2254 40.6471C72.3446 40.7737 72.4875 40.8756 72.6461 40.9469C72.8047 41.0183 72.9757 41.0576 73.1495 41.0628L80.1827 41.2726V52.3851C80.1825 52.5589 80.2165 52.731 80.2829 52.8917C80.3493 53.0523 80.4466 53.1983 80.5694 53.3213C80.6923 53.4443 80.8381 53.5419 80.9986 53.6085C81.1592 53.6751 81.3313 53.7095 81.5051 53.7095C81.6789 53.7095 81.851 53.6751 82.0116 53.6085C82.1721 53.5419 82.318 53.4443 82.4408 53.3213C82.5636 53.1983 82.6609 53.0523 82.7273 52.8917C82.7937 52.731 82.8277 52.5589 82.8275 52.3851V41.3516L89.5971 41.5537V52.4398C89.5973 52.7904 89.7366 53.1266 89.9844 53.3746C90.2323 53.6225 90.5684 53.762 90.919 53.7622C91.0928 53.7624 91.265 53.7284 91.4256 53.662C91.5863 53.5957 91.7323 53.4983 91.8553 53.3755C91.9783 53.2527 92.0759 53.1068 92.1425 52.9463C92.2091 52.7857 92.2434 52.6137 92.2435 52.4398V41.6327L98.7314 41.8265L98.8627 52.721C98.8669 53.0716 99.0102 53.4063 99.2611 53.6514C99.512 53.8964 99.8499 54.0319 100.201 54.0279C100.551 54.0235 100.886 53.8801 101.131 53.6293C101.376 53.3784 101.511 53.0406 101.507 52.69L101.385 42.5304L102.443 42.9443V53.4005C102.443 53.4875 102.46 53.5737 102.493 53.6541C102.526 53.7345 102.575 53.8075 102.636 53.8691C102.698 53.9306 102.771 53.9794 102.851 54.0127C102.932 54.046 103.018 54.0631 103.105 54.063C103.192 54.0631 103.278 54.046 103.358 54.0127C103.439 53.9794 103.512 53.9306 103.573 53.8691C103.635 53.8075 103.683 53.7345 103.717 53.6541C103.75 53.5737 103.767 53.4875 103.767 53.4005V43.4626L104.8 43.8672V53.4005C104.8 53.4875 104.817 53.5737 104.85 53.6542C104.883 53.7346 104.932 53.8077 104.994 53.8693C105.055 53.9308 105.128 53.9796 105.209 54.0128C105.289 54.0461 105.375 54.0631 105.462 54.063C105.638 54.0626 105.806 53.9926 105.929 53.8683C106.053 53.7441 106.122 53.5758 106.122 53.4005V44.2574C106.376 44.244 106.621 44.1577 106.827 44.0088C107.033 43.86 107.192 43.6549 107.284 43.4182C107.348 43.2564 107.379 43.0836 107.375 42.9099C107.372 42.7361 107.334 42.5647 107.265 42.4055C107.195 42.2463 107.095 42.1023 106.97 41.9819C106.844 41.8614 106.696 41.7669 106.535 41.7035L106.122 41.5423V33.7366C106.148 33.6994 106.172 33.661 106.195 33.6213C106.316 33.4039 106.374 33.1566 106.361 32.9079C106.348 32.6591 106.265 32.419 106.122 32.2152V31.1388C106.122 30.9636 106.053 30.7954 105.929 30.6713C105.805 30.5472 105.638 30.4773 105.462 30.4768C105.375 30.4767 105.289 30.4937 105.209 30.5269C105.128 30.5602 105.055 30.6089 104.994 30.6704C104.932 30.7319 104.883 30.8049 104.85 30.8853C104.817 30.9657 104.8 31.0518 104.8 31.1388V31.3264L103.767 30.7497V23.4065C103.863 23.2197 103.913 23.0128 103.913 22.8029C103.913 22.593 103.863 22.3861 103.767 22.1993V21.9048C103.767 21.8178 103.75 21.7316 103.717 21.6512C103.683 21.5708 103.635 21.4977 103.573 21.4362C103.512 21.3746 103.439 21.3258 103.358 21.2926C103.278 21.2593 103.192 21.2422 103.105 21.2423C102.975 21.2424 102.848 21.2806 102.74 21.3523H102.739L101.119 20.386L101.028 12.8185C101.026 12.6447 100.99 12.4731 100.921 12.3133C100.853 12.1536 100.754 12.009 100.629 11.8877C100.505 11.7664 100.358 11.6707 100.196 11.6063C100.035 11.5419 99.8623 11.5099 99.6885 11.5121ZM92.2435 22.1512L98.4973 22.4195L98.5769 29.0097L92.2435 28.7219V22.1512ZM101.157 23.4886L101.913 23.9398C102.075 24.0361 102.256 24.0967 102.443 24.1175V30.0107L101.227 29.3322L101.157 23.4886ZM82.8275 30.9435L89.5971 31.251V38.9073L82.8275 38.7053V30.9435ZM92.2435 31.3708L98.609 31.6597L98.6994 39.1791L92.2435 38.9864V31.3708ZM101.264 32.3832L102.443 33.0415V40.1026L101.351 39.6752L101.264 32.3832ZM103.767 33.7805L104.396 34.1314C104.522 34.2015 104.658 34.2505 104.8 34.2766V41.0245L103.767 40.6204V33.7805Z" fill="#EEEEEE"/>
<path d="M17.744 31.5602L7.31183 45.3443L15.409 45.8716L23.1296 36.7575L17.744 31.5602Z" fill="#EEEEEE"/>
<path d="M29.3061 14.462L26.4815 10.4322L16.0493 30.0538L16.8778 30.5811L18.1583 28.9616L21.2089 29.6395L29.3061 14.462Z" fill="#EEEEEE"/>
<path d="M100.779 10.2332L109.141 2.72339L113.935 39.74L108.715 40.2726L100.779 10.2332Z" fill="#EEEEEE"/>
<path d="M30.3139 15.7501C30.2271 15.7502 30.1411 15.7675 30.0609 15.8008C29.9807 15.8342 29.9078 15.883 29.8465 15.9446C29.7852 16.0061 29.7366 16.0791 29.7035 16.1594C29.6703 16.2397 29.6534 16.3257 29.6535 16.4126V28.4222C29.6534 28.5975 29.7229 28.7657 29.8467 28.8899C29.9705 29.014 30.1386 29.0839 30.3139 29.0842C30.4009 29.0842 30.487 29.0672 30.5673 29.0339C30.6477 29.0007 30.7207 28.9519 30.7822 28.8904C30.8437 28.8289 30.8924 28.7559 30.9257 28.6756C30.9589 28.5953 30.976 28.5091 30.9759 28.4222V16.4126C30.976 16.3256 30.959 16.2394 30.9258 16.159C30.8926 16.0786 30.8438 16.0056 30.7824 15.944C30.7209 15.8825 30.6478 15.8337 30.5675 15.8004C30.4871 15.7671 30.4009 15.75 30.3139 15.7501ZM26.1069 20.5178C26.0201 20.5176 25.934 20.5346 25.8537 20.5677C25.7734 20.6008 25.7004 20.6494 25.6389 20.7108C25.5774 20.7721 25.5286 20.8449 25.4952 20.9251C25.4618 21.0053 25.4446 21.0913 25.4445 21.1782V30.1802C25.4449 30.3556 25.5149 30.5236 25.6391 30.6473C25.7633 30.771 25.9316 30.8404 26.1069 30.8401C26.2822 30.8403 26.4503 30.7708 26.5745 30.6471C26.6986 30.5234 26.7685 30.3555 26.7689 30.1802V21.1782C26.7687 21.0028 26.6988 20.8348 26.5746 20.7109C26.4505 20.5871 26.2823 20.5176 26.1069 20.5178ZM34.4429 21.3694C34.3559 21.3693 34.2697 21.3863 34.1893 21.4195C34.1089 21.4527 34.0358 21.5014 33.9743 21.5629C33.9128 21.6244 33.864 21.6975 33.8307 21.7778C33.7974 21.8582 33.7803 21.9444 33.7804 22.0314V31.4571C33.7802 31.5442 33.7973 31.6304 33.8305 31.7108C33.8638 31.7913 33.9126 31.8644 33.9741 31.9259C34.0357 31.9874 34.1087 32.0362 34.1892 32.0695C34.2696 32.1027 34.3558 32.1198 34.4429 32.1196C34.6182 32.1192 34.7862 32.0492 34.91 31.925C35.0337 31.8008 35.1031 31.6325 35.1028 31.4571V22.0314C35.1029 21.8561 35.0335 21.688 34.9098 21.5639C34.7861 21.4397 34.6181 21.3698 34.4429 21.3694Z" fill="#EEEEEE"/>
</svg>
