<svg width="51" height="51" viewBox="0 0 51 51" fill="none" xmlns="http://www.w3.org/2000/svg">
<path d="M13.6 10.2C11.7164 10.2 10.2 11.7164 10.2 13.6C10.2 15.4836 11.7164 17 13.6 17H18.0098L15.8168 23.8H8.50001C6.61641 23.8 5.10001 25.3164 5.10001 27.2C5.10001 29.0836 6.61641 30.6 8.50001 30.6H13.634L10.3394 40.834C10.2311 41.1535 10.1873 41.4913 10.2105 41.8278C10.2337 42.1643 10.3235 42.4929 10.4746 42.7946C10.6257 43.0962 10.8351 43.3648 11.0908 43.5849C11.3464 43.805 11.6432 43.9722 11.9639 44.0768C12.2847 44.1813 12.623 44.2212 12.9592 44.1942C13.2955 44.1671 13.623 44.0736 13.9229 43.919C14.2227 43.7644 14.4889 43.5519 14.706 43.2937C14.9232 43.0356 15.0869 42.7369 15.1878 42.415L15.1946 42.4014L18.9924 30.6H32.0076L35.8054 42.398C36.0128 43.0418 36.4675 43.5769 37.0694 43.8855C37.6713 44.1941 38.3712 44.251 39.015 44.0436C39.6588 43.8362 40.1939 43.3815 40.5025 42.7796C40.8111 42.1777 40.868 41.4778 40.6606 40.834L37.366 30.6H42.5C44.3836 30.6 45.9 29.0836 45.9 27.2C45.9 25.3164 44.3836 23.8 42.5 23.8H35.1832L32.9902 17H37.4C39.2836 17 40.8 15.4836 40.8 13.6C40.8 11.7164 39.2836 10.2 37.4 10.2H13.6ZM23.3682 17H27.6318L29.8214 23.8H21.182L23.3716 17H23.3682Z" fill="#858585"/>
</svg>
