<svg width="55" height="55" viewBox="0 0 55 55" fill="none" xmlns="http://www.w3.org/2000/svg">
<g clip-path="url(#clip0_13_115)">
<path d="M11.5944 50.7278C10.9814 52.5712 12.4738 54.4371 14.9288 54.8969C15.3026 54.9678 15.6764 54.9989 16.046 54.9989C18.0984 54.9989 19.9661 53.9569 20.4889 52.3961L24.104 41.5497L16.5444 35.88L11.5944 50.7278ZM13.7271 29.6603L19.6224 12.5684C19.9361 11.6639 19.1727 10.7476 17.9151 10.5209C11.6302 9.39082 5.26081 12.1397 3.68958 16.6622L0.0701827 27.2035C-0.243489 28.108 0.519922 29.0243 1.77747 29.251L10.8811 30.8892C12.1401 31.1147 13.4134 30.5647 13.7271 29.6603ZM52.7083 17.1875H50.4167C49.1505 17.1875 48.125 17.9566 48.125 18.9062V20.625H43.1478L36.4475 15.5998C34.8591 14.4063 32.7436 13.75 30.4949 13.75C26.6249 13.75 23.2661 15.7158 22.3266 18.5324L18.4708 30.1039C18.2791 30.6798 18.2893 31.2832 18.5007 31.8553C18.712 32.4274 19.1172 32.9487 19.6768 33.3685L32.0833 42.6733V51.5625C32.0833 53.4606 34.1358 55 36.6667 55C39.1975 55 41.25 53.4606 41.25 51.5625V42.6733C41.25 40.8375 40.2961 39.1112 38.5644 37.8125L31.8585 32.783C31.8799 32.7293 31.9286 32.6874 31.9473 32.6315L34.7961 24.084L38.0087 26.4935C38.8681 27.138 40.034 27.5011 41.2486 27.5011H48.1236V53.2823C48.1236 54.2319 49.1491 55.0011 50.4152 55.0011H52.7069C53.973 55.0011 54.9986 54.2319 54.9986 53.2823V18.9062C55 17.9566 53.9745 17.1875 52.7083 17.1875ZM34.375 10.3125C38.172 10.3125 41.25 8.004 41.25 5.15625C41.25 2.3085 38.172 0 34.375 0C30.578 0 27.5 2.3085 27.5 5.15625C27.5 8.004 30.578 10.3125 34.375 10.3125Z" fill="#858585"/>
</g>
<defs>
<clipPath id="clip0_13_115">
<rect width="55" height="55" fill="white"/>
</clipPath>
</defs>
</svg>
