<svg width="24" height="18" viewBox="0 0 24 18" fill="none" xmlns="http://www.w3.org/2000/svg">
<path d="M15.522 8.46445C15.522 6.79644 16.254 5.83344 17.499 5.83344C18.522 5.83344 19.2075 6.53844 19.2795 7.49545H21V7.33044C20.9205 5.54994 19.464 4.33044 17.487 4.33044C15.081 4.33044 13.71 5.90544 13.71 8.45694V9.57745C13.71 12.1274 15.0675 13.6724 17.487 13.6724C19.458 13.6724 20.9145 12.4844 21 10.7639V10.5929H19.2795C19.2075 11.5154 18.534 12.1679 17.499 12.1679C16.2405 12.1679 15.522 11.2379 15.522 9.57745V8.46445ZM6.6855 13.4999L8.2155 7.22394H8.283L9.813 13.4999H11.322L13.5 4.50144H11.727L10.497 11.0339H10.413L8.955 4.50144H7.545L6.087 11.0339H6.0075L4.767 4.50144H3L5.178 13.4999H6.6855Z" fill="white"/>
<path d="M21 1.5C21.3978 1.5 21.7794 1.65804 22.0607 1.93934C22.342 2.22064 22.5 2.60218 22.5 3V15C22.5 15.3978 22.342 15.7794 22.0607 16.0607C21.7794 16.342 21.3978 16.5 21 16.5H3C2.60218 16.5 2.22064 16.342 1.93934 16.0607C1.65804 15.7794 1.5 15.3978 1.5 15V3C1.5 2.60218 1.65804 2.22064 1.93934 1.93934C2.22064 1.65804 2.60218 1.5 3 1.5H21ZM3 0C2.20435 0 1.44129 0.31607 0.87868 0.87868C0.316071 1.44129 0 2.20435 0 3L0 15C0 15.7956 0.316071 16.5587 0.87868 17.1213C1.44129 17.6839 2.20435 18 3 18H21C21.7956 18 22.5587 17.6839 23.1213 17.1213C23.6839 16.5587 24 15.7956 24 15V3C24 2.20435 23.6839 1.44129 23.1213 0.87868C22.5587 0.31607 21.7956 0 21 0H3Z" fill="white"/>
</svg>
