<svg width="48" height="33" viewBox="0 0 48 33" fill="none" xmlns="http://www.w3.org/2000/svg">
<path d="M46.6115 9.73442C46.7686 9.58181 46.8908 9.39695 46.9696 9.19258C47.0484 8.98821 47.082 8.76918 47.0681 8.55057C47.0541 8.33197 46.9929 8.11899 46.8888 7.9263C46.7846 7.73362 46.6399 7.5658 46.4646 7.43442C39.8021 2.59051 31.7737 -0.0127072 23.5365 4.66405e-05C14.9708 4.66405e-05 7.04584 2.7563 0.608337 7.43442C0.432852 7.56557 0.287882 7.73319 0.183416 7.92576C0.0789498 8.11832 0.0174703 8.33124 0.00321312 8.54985C-0.0110441 8.76846 0.02226 8.98756 0.100831 9.19206C0.179401 9.39656 0.301371 9.5816 0.458337 9.73442C0.731447 10.0034 1.09116 10.1668 1.47343 10.1954C1.8557 10.224 2.23572 10.116 2.54584 9.89067C8.65565 5.48126 16.0017 3.11351 23.5365 3.12505C31.3708 3.12505 38.6208 5.6313 44.524 9.88755C45.1646 10.35 46.0552 10.2938 46.6115 9.73442Z" fill="#858585"/>
<path d="M39.8772 16.4719C40.0382 16.3166 40.1626 16.1273 40.2413 15.9178C40.32 15.7084 40.3511 15.484 40.3322 15.2611C40.3134 15.0381 40.2451 14.8221 40.1323 14.6289C40.0196 14.4356 39.8652 14.2699 39.6803 14.1438C34.8753 11.0225 29.2664 9.36568 23.5366 9.37504C17.5835 9.37504 12.0366 11.125 7.39283 14.1438C7.20706 14.2692 7.05174 14.4346 6.93829 14.6279C6.82484 14.8212 6.75615 15.0374 6.73727 15.2607C6.71838 15.4841 6.74978 15.7088 6.82916 15.9184C6.90854 16.128 7.03387 16.3171 7.19596 16.4719C7.46222 16.7318 7.8089 16.8934 8.17913 16.9303C8.54935 16.9673 8.92113 16.8772 9.23346 16.675C13.5023 13.9408 18.4672 12.4916 23.5366 12.5C28.6049 12.4922 33.5686 13.9414 37.8366 16.675C38.4803 17.0875 39.3366 17.0125 39.8772 16.4719ZM33.0553 23.2938C33.7616 22.5875 33.6335 21.4032 32.7428 20.95C29.8913 19.4989 26.7361 18.745 23.5366 18.75C20.2241 18.75 17.0928 19.5438 14.3303 20.95C13.4397 21.4032 13.3116 22.5875 14.0178 23.2938L14.0647 23.3407C14.5647 23.8407 15.3366 23.9344 15.9741 23.6219C18.3279 22.4683 20.9152 21.8706 23.5366 21.875C26.2491 21.875 28.8178 22.5032 31.0991 23.625C31.7335 23.9375 32.5053 23.8438 33.0053 23.3407L33.0553 23.2938ZM26.8491 29.5C27.4616 28.8875 27.4678 27.875 26.7241 27.4375C25.76 26.8637 24.6586 26.5613 23.5366 26.5625C22.4146 26.5613 21.3132 26.8637 20.3491 27.4375C19.6053 27.875 19.6116 28.8875 20.2241 29.5L22.4303 31.7063C22.7233 31.9992 23.1207 32.1638 23.535 32.1638C23.9493 32.1638 24.3467 31.9992 24.6397 31.7063L26.8491 29.4969V29.5Z" fill="#858585"/>
</svg>
